<svg width="50" height="50" viewBox="0 0 50 50" fill="none" xmlns="http://www.w3.org/2000/svg">
<mask id="mask0_1_15" style="mask-type:alpha" maskUnits="userSpaceOnUse" x="0" y="0" width="50" height="50">
<rect width="50" height="50" fill="black"/>
</mask>
<g mask="url(#mask0_1_15)">
<path d="M20.8333 45.8333V41.6667H47.9166V45.8333H20.8333ZM22.9166 39.5833C22.9166 36.7708 23.8021 34.3142 25.5729 32.2135C27.3437 30.1128 29.5833 28.8194 32.2916 28.3333V27.0312C32.2916 26.441 32.4913 25.9462 32.8906 25.5469C33.2899 25.1476 33.7847 24.9479 34.375 24.9479C34.9653 24.9479 35.46 25.1476 35.8594 25.5469C36.2587 25.9462 36.4583 26.441 36.4583 27.0312V28.3333C39.1319 28.8194 41.3628 30.1128 43.151 32.2135C44.9392 34.3142 45.8333 36.7708 45.8333 39.5833H22.9166ZM28.3854 35.3646H40.2604C39.6007 34.4271 38.7587 33.6719 37.7344 33.099C36.7101 32.526 35.5903 32.2396 34.375 32.2396C33.125 32.2396 31.9791 32.526 30.9375 33.099C29.8958 33.6719 29.0451 34.4271 28.3854 35.3646ZM2.08331 27.0833V4.16667H14.5833V7.1875L29.1666 3.125L45.8333 8.33333V10.4167C45.8333 12.1528 45.2257 13.6285 44.0104 14.8437C42.7951 16.059 41.3194 16.6667 39.5833 16.6667H35.4166V17.9167C35.4166 18.7847 35.1649 19.5747 34.6614 20.2865C34.158 20.9983 33.5069 21.5104 32.7083 21.8229L18.6458 27.0833H2.08331ZM6.24998 22.9167H10.4166V8.33333H6.24998V22.9167ZM14.5833 22.9167H17.9166L30 18.4896C30.3819 18.3507 30.6857 18.1163 30.9114 17.7865C31.1371 17.4566 31.25 17.0833 31.25 16.6667H27.5521L21.4583 18.6458L20.2083 14.6875L26.7187 12.5H39.5833C39.8958 12.5 40.2864 12.3872 40.7552 12.1615C41.2239 11.9358 41.4583 11.6667 41.4583 11.3542L29.0625 7.5L14.5833 11.4583V22.9167Z" fill="white"/>
</g>
</svg>
